<?xml version="1.0" encoding="UTF-8" standalone="no"?>
<!DOCTYPE svg PUBLIC "-//W3C//DTD SVG 1.1//EN"
 "http://www.w3.org/Graphics/SVG/1.1/DTD/svg11.dtd">
<!-- Generated by graphviz version 2.43.0 (0)
 -->
<!-- Title: execution_flow Pages: 1 -->
<svg width="252pt" height="482pt"
 viewBox="0.00 0.00 252.00 482.00" xmlns="http://www.w3.org/2000/svg" xmlns:xlink="http://www.w3.org/1999/xlink">
<g id="graph0" class="graph" transform="scale(1 1) rotate(0) translate(4 478)">
<title>execution_flow</title>
<polygon fill="white" stroke="transparent" points="-4,4 -4,-478 248,-478 248,4 -4,4"/>
<!-- parse -->
<g id="node1" class="node">
<title>parse</title>
<path fill="#f8f8f8" stroke="#4c566a" d="M193.5,-474C193.5,-474 50.5,-474 50.5,-474 44.5,-474 38.5,-468 38.5,-462 38.5,-462 38.5,-450 38.5,-450 38.5,-444 44.5,-438 50.5,-438 50.5,-438 193.5,-438 193.5,-438 199.5,-438 205.5,-444 205.5,-450 205.5,-450 205.5,-462 205.5,-462 205.5,-468 199.5,-474 193.5,-474"/>
<text text-anchor="middle" x="122" y="-452.3" font-family="Times,serif" font-size="14.00">Parse CLI arguments</text>
</g>
<!-- load -->
<g id="node2" class="node">
<title>load</title>
<path fill="#f8f8f8" stroke="#4c566a" d="M194.5,-402C194.5,-402 49.5,-402 49.5,-402 43.5,-402 37.5,-396 37.5,-390 37.5,-390 37.5,-376 37.5,-376 37.5,-370 43.5,-364 49.5,-364 49.5,-364 194.5,-364 194.5,-364 200.5,-364 206.5,-370 206.5,-376 206.5,-376 206.5,-390 206.5,-390 206.5,-396 200.5,-402 194.5,-402"/>
<text text-anchor="middle" x="122" y="-386.8" font-family="Times,serif" font-size="14.00">Load source dataset</text>
<text text-anchor="middle" x="122" y="-371.8" font-family="Times,serif" font-size="14.00">CSV / Excel / Parquet</text>
</g>
<!-- parse&#45;&gt;load -->
<g id="edge1" class="edge">
<title>parse&#45;&gt;load</title>
<path fill="none" stroke="black" d="M122,-437.81C122,-430.11 122,-420.82 122,-412.15"/>
<polygon fill="black" stroke="black" points="125.5,-412.02 122,-402.02 118.5,-412.02 125.5,-412.02"/>
</g>
<!-- clean -->
<g id="node3" class="node">
<title>clean</title>
<path fill="#f8f8f8" stroke="#4c566a" d="M232,-328C232,-328 12,-328 12,-328 6,-328 0,-322 0,-316 0,-316 0,-302 0,-302 0,-296 6,-290 12,-290 12,-290 232,-290 232,-290 238,-290 244,-296 244,-302 244,-302 244,-316 244,-316 244,-322 238,-328 232,-328"/>
<text text-anchor="middle" x="122" y="-312.8" font-family="Times,serif" font-size="14.00">Normalize sentinel values</text>
<text text-anchor="middle" x="122" y="-297.8" font-family="Times,serif" font-size="14.00">and harmonize categorical flags</text>
</g>
<!-- load&#45;&gt;clean -->
<g id="edge2" class="edge">
<title>load&#45;&gt;clean</title>
<path fill="none" stroke="black" d="M122,-363.83C122,-356.13 122,-346.97 122,-338.42"/>
<polygon fill="black" stroke="black" points="125.5,-338.41 122,-328.41 118.5,-338.41 125.5,-338.41"/>
</g>
<!-- select -->
<g id="node4" class="node">
<title>select</title>
<path fill="#f8f8f8" stroke="#4c566a" d="M197.5,-254C197.5,-254 46.5,-254 46.5,-254 40.5,-254 34.5,-248 34.5,-242 34.5,-242 34.5,-228 34.5,-228 34.5,-222 40.5,-216 46.5,-216 46.5,-216 197.5,-216 197.5,-216 203.5,-216 209.5,-222 209.5,-228 209.5,-228 209.5,-242 209.5,-242 209.5,-248 203.5,-254 197.5,-254"/>
<text text-anchor="middle" x="122" y="-238.8" font-family="Times,serif" font-size="14.00">Instantiate configured</text>
<text text-anchor="middle" x="122" y="-223.8" font-family="Times,serif" font-size="14.00">experiment objects</text>
</g>
<!-- clean&#45;&gt;select -->
<g id="edge3" class="edge">
<title>clean&#45;&gt;select</title>
<path fill="none" stroke="black" d="M122,-289.83C122,-282.13 122,-272.97 122,-264.42"/>
<polygon fill="black" stroke="black" points="125.5,-264.41 122,-254.41 118.5,-264.41 125.5,-264.41"/>
</g>
<!-- run -->
<g id="node5" class="node">
<title>run</title>
<path fill="#f8f8f8" stroke="#4c566a" d="M216.5,-180C216.5,-180 27.5,-180 27.5,-180 21.5,-180 15.5,-174 15.5,-168 15.5,-168 15.5,-156 15.5,-156 15.5,-150 21.5,-144 27.5,-144 27.5,-144 216.5,-144 216.5,-144 222.5,-144 228.5,-150 228.5,-156 228.5,-156 228.5,-168 228.5,-168 228.5,-174 222.5,-180 216.5,-180"/>
<text text-anchor="middle" x="122" y="-158.3" font-family="Times,serif" font-size="14.00">Run selected experiment(s)</text>
</g>
<!-- select&#45;&gt;run -->
<g id="edge4" class="edge">
<title>select&#45;&gt;run</title>
<path fill="none" stroke="black" d="M122,-215.72C122,-207.97 122,-198.79 122,-190.27"/>
<polygon fill="black" stroke="black" points="125.5,-190 122,-180 118.5,-190 125.5,-190"/>
</g>
<!-- export_html -->
<g id="node6" class="node">
<title>export_html</title>
<path fill="#f8f8f8" stroke="#4c566a" d="M213.5,-108C213.5,-108 30.5,-108 30.5,-108 24.5,-108 18.5,-102 18.5,-96 18.5,-96 18.5,-84 18.5,-84 18.5,-78 24.5,-72 30.5,-72 30.5,-72 213.5,-72 213.5,-72 219.5,-72 225.5,-78 225.5,-84 225.5,-84 225.5,-96 225.5,-96 225.5,-102 219.5,-108 213.5,-108"/>
<text text-anchor="middle" x="122" y="-86.3" font-family="Times,serif" font-size="14.00">Write Plotly HTML artifact</text>
</g>
<!-- run&#45;&gt;export_html -->
<g id="edge5" class="edge">
<title>run&#45;&gt;export_html</title>
<path fill="none" stroke="black" d="M122,-143.7C122,-135.98 122,-126.71 122,-118.11"/>
<polygon fill="black" stroke="black" points="125.5,-118.1 122,-108.1 118.5,-118.1 125.5,-118.1"/>
</g>
<!-- export_tex -->
<g id="node7" class="node">
<title>export_tex</title>
<path fill="#f8f8f8" stroke="#4c566a" d="M216.5,-36C216.5,-36 27.5,-36 27.5,-36 21.5,-36 15.5,-30 15.5,-24 15.5,-24 15.5,-12 15.5,-12 15.5,-6 21.5,0 27.5,0 27.5,0 216.5,0 216.5,0 222.5,0 228.5,-6 228.5,-12 228.5,-12 228.5,-24 228.5,-24 228.5,-30 222.5,-36 216.5,-36"/>
<text text-anchor="middle" x="122" y="-14.3" font-family="Times,serif" font-size="14.00">Print and store LaTeX table</text>
</g>
<!-- export_html&#45;&gt;export_tex -->
<g id="edge6" class="edge">
<title>export_html&#45;&gt;export_tex</title>
<path fill="none" stroke="black" d="M122,-71.7C122,-63.98 122,-54.71 122,-46.11"/>
<polygon fill="black" stroke="black" points="125.5,-46.1 122,-36.1 118.5,-46.1 125.5,-46.1"/>
</g>
</g>
</svg>
