<?xml version="1.0" encoding="UTF-8" standalone="no"?>
<!DOCTYPE svg PUBLIC "-//W3C//DTD SVG 1.1//EN"
 "http://www.w3.org/Graphics/SVG/1.1/DTD/svg11.dtd">
<!-- Generated by graphviz version 2.43.0 (0)
 -->
<!-- Title: system_overview Pages: 1 -->
<svg width="1245pt" height="368pt"
 viewBox="0.00 0.00 1245.00 368.00" xmlns="http://www.w3.org/2000/svg" xmlns:xlink="http://www.w3.org/1999/xlink">
<g id="graph0" class="graph" transform="scale(1 1) rotate(0) translate(4 364)">
<title>system_overview</title>
<polygon fill="white" stroke="transparent" points="-4,4 -4,-364 1241,-364 1241,4 -4,4"/>
<!-- cli -->
<g id="node1" class="node">
<title>cli</title>
<path fill="#f8f8f8" stroke="#4c566a" d="M69,-199C69,-199 12,-199 12,-199 6,-199 0,-193 0,-187 0,-187 0,-173 0,-173 0,-167 6,-161 12,-161 12,-161 69,-161 69,-161 75,-161 81,-167 81,-173 81,-173 81,-187 81,-187 81,-193 75,-199 69,-199"/>
<text text-anchor="middle" x="40.5" y="-183.8" font-family="Times,serif" font-size="14.00">CLI</text>
<text text-anchor="middle" x="40.5" y="-168.8" font-family="Times,serif" font-size="14.00">src/cli.py</text>
</g>
<!-- processor -->
<g id="node2" class="node">
<title>processor</title>
<path fill="#f8f8f8" stroke="#4c566a" d="M409,-199C409,-199 259,-199 259,-199 253,-199 247,-193 247,-187 247,-187 247,-173 247,-173 247,-167 253,-161 259,-161 259,-161 409,-161 409,-161 415,-161 421,-167 421,-173 421,-173 421,-187 421,-187 421,-193 415,-199 409,-199"/>
<text text-anchor="middle" x="334" y="-183.8" font-family="Times,serif" font-size="14.00">ClinicalDataProcessor</text>
<text text-anchor="middle" x="334" y="-168.8" font-family="Times,serif" font-size="14.00">src/data_processor.py</text>
</g>
<!-- cli&#45;&gt;processor -->
<g id="edge1" class="edge">
<title>cli&#45;&gt;processor</title>
<path fill="none" stroke="black" d="M81.12,-180C120.89,-180 183.71,-180 236.65,-180"/>
<polygon fill="black" stroke="black" points="236.76,-183.5 246.76,-180 236.76,-176.5 236.76,-183.5"/>
<text text-anchor="middle" x="164" y="-183.8" font-family="Times,serif" font-size="14.00">load + preprocess</text>
</g>
<!-- registry -->
<g id="node3" class="node">
<title>registry</title>
<path fill="#f8f8f8" stroke="#4c566a" d="M751,-199C751,-199 609,-199 609,-199 603,-199 597,-193 597,-187 597,-187 597,-173 597,-173 597,-167 603,-161 609,-161 609,-161 751,-161 751,-161 757,-161 763,-167 763,-173 763,-173 763,-187 763,-187 763,-193 757,-199 751,-199"/>
<text text-anchor="middle" x="680" y="-183.8" font-family="Times,serif" font-size="14.00">Experiment Registry</text>
<text text-anchor="middle" x="680" y="-168.8" font-family="Times,serif" font-size="14.00">configured instances</text>
</g>
<!-- processor&#45;&gt;registry -->
<g id="edge2" class="edge">
<title>processor&#45;&gt;registry</title>
<path fill="none" stroke="black" d="M421.36,-180C471.74,-180 535.28,-180 586.65,-180"/>
<polygon fill="black" stroke="black" points="586.75,-183.5 596.75,-180 586.75,-176.5 586.75,-183.5"/>
<text text-anchor="middle" x="509" y="-183.8" font-family="Times,serif" font-size="14.00">cleaned DataFrame</text>
</g>
<!-- perm -->
<g id="node4" class="node">
<title>perm</title>
<path fill="#f8f8f8" stroke="#4c566a" d="M1061,-360C1061,-360 814,-360 814,-360 808,-360 802,-354 802,-348 802,-348 802,-336 802,-336 802,-330 808,-324 814,-324 814,-324 1061,-324 1061,-324 1067,-324 1073,-330 1073,-336 1073,-336 1073,-348 1073,-348 1073,-354 1067,-360 1061,-360"/>
<text text-anchor="middle" x="937.5" y="-338.3" font-family="Times,serif" font-size="14.00">PermutationImportanceExperiment</text>
</g>
<!-- registry&#45;&gt;perm -->
<g id="edge3" class="edge">
<title>registry&#45;&gt;perm</title>
<path fill="none" stroke="black" d="M692.12,-199.23C710.49,-229.14 750.16,-286.35 800,-315 803.02,-316.74 806.14,-318.37 809.33,-319.89"/>
<polygon fill="black" stroke="black" points="807.93,-323.1 818.5,-323.92 810.75,-316.69 807.93,-323.1"/>
</g>
<!-- contrast -->
<g id="node5" class="node">
<title>contrast</title>
<path fill="#f8f8f8" stroke="#4c566a" d="M1058.5,-306C1058.5,-306 816.5,-306 816.5,-306 810.5,-306 804.5,-300 804.5,-294 804.5,-294 804.5,-282 804.5,-282 804.5,-276 810.5,-270 816.5,-270 816.5,-270 1058.5,-270 1058.5,-270 1064.5,-270 1070.5,-276 1070.5,-282 1070.5,-282 1070.5,-294 1070.5,-294 1070.5,-300 1064.5,-306 1058.5,-306"/>
<text text-anchor="middle" x="937.5" y="-284.3" font-family="Times,serif" font-size="14.00">ContrastPatternMiningExperiment</text>
</g>
<!-- registry&#45;&gt;contrast -->
<g id="edge4" class="edge">
<title>registry&#45;&gt;contrast</title>
<path fill="none" stroke="black" d="M703.09,-199.11C725.85,-217.78 763.12,-245.56 800,-261 805.08,-263.13 810.34,-265.09 815.71,-266.9"/>
<polygon fill="black" stroke="black" points="814.88,-270.31 825.47,-270 817,-263.64 814.88,-270.31"/>
</g>
<!-- cluster -->
<g id="node6" class="node">
<title>cluster</title>
<path fill="#f8f8f8" stroke="#4c566a" d="M1063,-252C1063,-252 812,-252 812,-252 806,-252 800,-246 800,-240 800,-240 800,-228 800,-228 800,-222 806,-216 812,-216 812,-216 1063,-216 1063,-216 1069,-216 1075,-222 1075,-228 1075,-228 1075,-240 1075,-240 1075,-246 1069,-252 1063,-252"/>
<text text-anchor="middle" x="937.5" y="-230.3" font-family="Times,serif" font-size="14.00">UnsupervisedClusteringExperiment</text>
</g>
<!-- registry&#45;&gt;cluster -->
<g id="edge5" class="edge">
<title>registry&#45;&gt;cluster</title>
<path fill="none" stroke="black" d="M763.19,-198.96C775.52,-201.71 788.08,-204.47 800,-207 810.87,-209.31 822.25,-211.66 833.6,-213.96"/>
<polygon fill="black" stroke="black" points="833.05,-217.42 843.55,-215.97 834.44,-210.56 833.05,-217.42"/>
</g>
<!-- assoc -->
<g id="node7" class="node">
<title>assoc</title>
<path fill="#f8f8f8" stroke="#4c566a" d="M1057,-198C1057,-198 818,-198 818,-198 812,-198 806,-192 806,-186 806,-186 806,-174 806,-174 806,-168 812,-162 818,-162 818,-162 1057,-162 1057,-162 1063,-162 1069,-168 1069,-174 1069,-174 1069,-186 1069,-186 1069,-192 1063,-198 1057,-198"/>
<text text-anchor="middle" x="937.5" y="-176.3" font-family="Times,serif" font-size="14.00">CategoricalAssociationExperiment</text>
</g>
<!-- registry&#45;&gt;assoc -->
<g id="edge6" class="edge">
<title>registry&#45;&gt;assoc</title>
<path fill="none" stroke="black" d="M763.25,-180C773.64,-180 784.48,-180 795.47,-180"/>
<polygon fill="black" stroke="black" points="795.58,-183.5 805.58,-180 795.58,-176.5 795.58,-183.5"/>
</g>
<!-- rules -->
<g id="node8" class="node">
<title>rules</title>
<path fill="#f8f8f8" stroke="#4c566a" d="M1047.5,-144C1047.5,-144 827.5,-144 827.5,-144 821.5,-144 815.5,-138 815.5,-132 815.5,-132 815.5,-120 815.5,-120 815.5,-114 821.5,-108 827.5,-108 827.5,-108 1047.5,-108 1047.5,-108 1053.5,-108 1059.5,-114 1059.5,-120 1059.5,-120 1059.5,-132 1059.5,-132 1059.5,-138 1053.5,-144 1047.5,-144"/>
<text text-anchor="middle" x="937.5" y="-122.3" font-family="Times,serif" font-size="14.00">AssociationExplorerExperiment</text>
</g>
<!-- registry&#45;&gt;rules -->
<g id="edge7" class="edge">
<title>registry&#45;&gt;rules</title>
<path fill="none" stroke="black" d="M763.19,-161.04C775.52,-158.29 788.08,-155.53 800,-153 810.87,-150.69 822.25,-148.34 833.6,-146.04"/>
<polygon fill="black" stroke="black" points="834.44,-149.44 843.55,-144.03 833.05,-142.58 834.44,-149.44"/>
</g>
<!-- bayes -->
<g id="node9" class="node">
<title>bayes</title>
<path fill="#f8f8f8" stroke="#4c566a" d="M1039,-90C1039,-90 836,-90 836,-90 830,-90 824,-84 824,-78 824,-78 824,-66 824,-66 824,-60 830,-54 836,-54 836,-54 1039,-54 1039,-54 1045,-54 1051,-60 1051,-66 1051,-66 1051,-78 1051,-78 1051,-84 1045,-90 1039,-90"/>
<text text-anchor="middle" x="937.5" y="-68.3" font-family="Times,serif" font-size="14.00">BayesianNetworkExperiment</text>
</g>
<!-- registry&#45;&gt;bayes -->
<g id="edge8" class="edge">
<title>registry&#45;&gt;bayes</title>
<path fill="none" stroke="black" d="M703.09,-160.89C725.85,-142.22 763.12,-114.44 800,-99 805.08,-96.87 810.34,-94.91 815.71,-93.1"/>
<polygon fill="black" stroke="black" points="817,-96.36 825.47,-90 814.88,-89.69 817,-96.36"/>
</g>
<!-- screen -->
<g id="node10" class="node">
<title>screen</title>
<path fill="#f8f8f8" stroke="#4c566a" d="M1058.5,-36C1058.5,-36 816.5,-36 816.5,-36 810.5,-36 804.5,-30 804.5,-24 804.5,-24 804.5,-12 804.5,-12 804.5,-6 810.5,0 816.5,0 816.5,0 1058.5,0 1058.5,0 1064.5,0 1070.5,-6 1070.5,-12 1070.5,-12 1070.5,-24 1070.5,-24 1070.5,-30 1064.5,-36 1058.5,-36"/>
<text text-anchor="middle" x="937.5" y="-14.3" font-family="Times,serif" font-size="14.00">ClinicalScoreScreeningExperiment</text>
</g>
<!-- registry&#45;&gt;screen -->
<g id="edge9" class="edge">
<title>registry&#45;&gt;screen</title>
<path fill="none" stroke="black" d="M692.12,-160.77C710.49,-130.86 750.16,-73.65 800,-45 803.02,-43.26 806.14,-41.63 809.33,-40.11"/>
<polygon fill="black" stroke="black" points="810.75,-43.31 818.5,-36.08 807.93,-36.9 810.75,-43.31"/>
</g>
<!-- outputs -->
<g id="node11" class="node">
<title>outputs</title>
<path fill="#f8f8f8" stroke="#4c566a" d="M1225,-199C1225,-199 1124,-199 1124,-199 1118,-199 1112,-193 1112,-187 1112,-187 1112,-173 1112,-173 1112,-167 1118,-161 1124,-161 1124,-161 1225,-161 1225,-161 1231,-161 1237,-167 1237,-173 1237,-173 1237,-187 1237,-187 1237,-193 1231,-199 1225,-199"/>
<text text-anchor="middle" x="1174.5" y="-183.8" font-family="Times,serif" font-size="14.00">Artifacts</text>
<text text-anchor="middle" x="1174.5" y="-168.8" font-family="Times,serif" font-size="14.00">LaTeX + HTML</text>
</g>
<!-- perm&#45;&gt;outputs -->
<g id="edge10" class="edge">
<title>perm&#45;&gt;outputs</title>
<path fill="none" stroke="black" d="M1058.24,-323.96C1064.08,-321.35 1069.7,-318.38 1075,-315 1115.79,-288.98 1145.23,-239.58 1160.8,-208.3"/>
<polygon fill="black" stroke="black" points="1163.99,-209.74 1165.19,-199.22 1157.69,-206.7 1163.99,-209.74"/>
</g>
<!-- contrast&#45;&gt;outputs -->
<g id="edge11" class="edge">
<title>contrast&#45;&gt;outputs</title>
<path fill="none" stroke="black" d="M1052.38,-269.99C1060.18,-267.39 1067.79,-264.41 1075,-261 1103.02,-247.75 1129.85,-224.77 1148.42,-206.66"/>
<polygon fill="black" stroke="black" points="1151.24,-208.78 1155.84,-199.24 1146.3,-203.83 1151.24,-208.78"/>
</g>
<!-- cluster&#45;&gt;outputs -->
<g id="edge12" class="edge">
<title>cluster&#45;&gt;outputs</title>
<path fill="none" stroke="black" d="M1034.15,-215.99C1047.89,-213.14 1061.83,-210.1 1075,-207 1083.81,-204.92 1093.02,-202.6 1102.12,-200.22"/>
<polygon fill="black" stroke="black" points="1103.17,-203.56 1111.94,-197.61 1101.37,-196.8 1103.17,-203.56"/>
</g>
<!-- assoc&#45;&gt;outputs -->
<g id="edge13" class="edge">
<title>assoc&#45;&gt;outputs</title>
<path fill="none" stroke="black" d="M1069.06,-180C1080.23,-180 1091.24,-180 1101.68,-180"/>
<polygon fill="black" stroke="black" points="1101.92,-183.5 1111.92,-180 1101.92,-176.5 1101.92,-183.5"/>
</g>
<!-- rules&#45;&gt;outputs -->
<g id="edge14" class="edge">
<title>rules&#45;&gt;outputs</title>
<path fill="none" stroke="black" d="M1034.15,-144.01C1047.89,-146.86 1061.83,-149.9 1075,-153 1083.81,-155.08 1093.02,-157.4 1102.12,-159.78"/>
<polygon fill="black" stroke="black" points="1101.37,-163.2 1111.94,-162.39 1103.17,-156.44 1101.37,-163.2"/>
</g>
<!-- bayes&#45;&gt;outputs -->
<g id="edge15" class="edge">
<title>bayes&#45;&gt;outputs</title>
<path fill="none" stroke="black" d="M1051.31,-89.66C1059.48,-92.34 1067.47,-95.44 1075,-99 1103.02,-112.25 1129.85,-135.23 1148.42,-153.34"/>
<polygon fill="black" stroke="black" points="1146.3,-156.17 1155.84,-160.76 1151.24,-151.22 1146.3,-156.17"/>
</g>
<!-- screen&#45;&gt;outputs -->
<g id="edge16" class="edge">
<title>screen&#45;&gt;outputs</title>
<path fill="none" stroke="black" d="M1058.24,-36.04C1064.08,-38.65 1069.7,-41.62 1075,-45 1115.79,-71.02 1145.23,-120.42 1160.8,-151.7"/>
<polygon fill="black" stroke="black" points="1157.69,-153.3 1165.19,-160.78 1163.99,-150.26 1157.69,-153.3"/>
</g>
</g>
</svg>
