<?xml version="1.0" encoding="UTF-8" standalone="no"?>
<!DOCTYPE svg PUBLIC "-//W3C//DTD SVG 1.1//EN"
 "http://www.w3.org/Graphics/SVG/1.1/DTD/svg11.dtd">
<!-- Generated by graphviz version 2.43.0 (0)
 -->
<!-- Title: preprocessing Pages: 1 -->
<svg width="1073pt" height="46pt"
 viewBox="0.00 0.00 1073.00 46.00" xmlns="http://www.w3.org/2000/svg" xmlns:xlink="http://www.w3.org/1999/xlink">
<g id="graph0" class="graph" transform="scale(1 1) rotate(0) translate(4 42)">
<title>preprocessing</title>
<polygon fill="white" stroke="transparent" points="-4,4 -4,-42 1069,-42 1069,4 -4,4"/>
<!-- source -->
<g id="node1" class="node">
<title>source</title>
<path fill="#f8f8f8" stroke="#4c566a" d="M149,-37C149,-37 12,-37 12,-37 6,-37 0,-31 0,-25 0,-25 0,-13 0,-13 0,-7 6,-1 12,-1 12,-1 149,-1 149,-1 155,-1 161,-7 161,-13 161,-13 161,-25 161,-25 161,-31 155,-37 149,-37"/>
<text text-anchor="middle" x="80.5" y="-15.3" font-family="Times,serif" font-size="14.00">Raw tabular dataset</text>
</g>
<!-- sentinel -->
<g id="node2" class="node">
<title>sentinel</title>
<path fill="#f8f8f8" stroke="#4c566a" d="M361,-38C361,-38 209,-38 209,-38 203,-38 197,-32 197,-26 197,-26 197,-12 197,-12 197,-6 203,0 209,0 209,0 361,0 361,0 367,0 373,-6 373,-12 373,-12 373,-26 373,-26 373,-32 367,-38 361,-38"/>
<text text-anchor="middle" x="285" y="-22.8" font-family="Times,serif" font-size="14.00">Replace int64 sentinel</text>
<text text-anchor="middle" x="285" y="-7.8" font-family="Times,serif" font-size="14.00">with NaN</text>
</g>
<!-- source&#45;&gt;sentinel -->
<g id="edge1" class="edge">
<title>source&#45;&gt;sentinel</title>
<path fill="none" stroke="black" d="M161.24,-19C169.67,-19 178.32,-19 186.92,-19"/>
<polygon fill="black" stroke="black" points="186.98,-22.5 196.98,-19 186.98,-15.5 186.98,-22.5"/>
</g>
<!-- derived -->
<g id="node3" class="node">
<title>derived</title>
<path fill="#f8f8f8" stroke="#4c566a" d="M645,-38C645,-38 421,-38 421,-38 415,-38 409,-32 409,-26 409,-26 409,-12 409,-12 409,-6 415,0 421,0 421,0 645,0 645,0 651,0 657,-6 657,-12 657,-12 657,-26 657,-26 657,-32 651,-38 645,-38"/>
<text text-anchor="middle" x="533" y="-22.8" font-family="Times,serif" font-size="14.00">Create derived categories</text>
<text text-anchor="middle" x="533" y="-7.8" font-family="Times,serif" font-size="14.00">hemoglobina_cat / plaquetas_cat</text>
</g>
<!-- sentinel&#45;&gt;derived -->
<g id="edge2" class="edge">
<title>sentinel&#45;&gt;derived</title>
<path fill="none" stroke="black" d="M373.08,-19C381.42,-19 390.01,-19 398.66,-19"/>
<polygon fill="black" stroke="black" points="398.85,-22.5 408.85,-19 398.85,-15.5 398.85,-22.5"/>
</g>
<!-- history -->
<g id="node4" class="node">
<title>history</title>
<path fill="#f8f8f8" stroke="#4c566a" d="M814,-38C814,-38 705,-38 705,-38 699,-38 693,-32 693,-26 693,-26 693,-12 693,-12 693,-6 699,0 705,0 705,0 814,0 814,0 820,0 826,-6 826,-12 826,-12 826,-26 826,-26 826,-32 820,-38 814,-38"/>
<text text-anchor="middle" x="759.5" y="-22.8" font-family="Times,serif" font-size="14.00">Fill history flags</text>
<text text-anchor="middle" x="759.5" y="-7.8" font-family="Times,serif" font-size="14.00">with &#39;No&#39;</text>
</g>
<!-- derived&#45;&gt;history -->
<g id="edge3" class="edge">
<title>derived&#45;&gt;history</title>
<path fill="none" stroke="black" d="M657.09,-19C665.7,-19 674.24,-19 682.47,-19"/>
<polygon fill="black" stroke="black" points="682.74,-22.5 692.74,-19 682.74,-15.5 682.74,-22.5"/>
</g>
<!-- ready -->
<g id="node5" class="node">
<title>ready</title>
<path fill="#f8f8f8" stroke="#4c566a" d="M1053,-38C1053,-38 874,-38 874,-38 868,-38 862,-32 862,-26 862,-26 862,-12 862,-12 862,-6 868,0 874,0 874,0 1053,0 1053,0 1059,0 1065,-6 1065,-12 1065,-12 1065,-26 1065,-26 1065,-32 1059,-38 1053,-38"/>
<text text-anchor="middle" x="963.5" y="-22.8" font-family="Times,serif" font-size="14.00">Processed DataFrame</text>
<text text-anchor="middle" x="963.5" y="-7.8" font-family="Times,serif" font-size="14.00">shared by all experiments</text>
</g>
<!-- history&#45;&gt;ready -->
<g id="edge4" class="edge">
<title>history&#45;&gt;ready</title>
<path fill="none" stroke="black" d="M826.08,-19C834.28,-19 842.83,-19 851.49,-19"/>
<polygon fill="black" stroke="black" points="851.67,-22.5 861.67,-19 851.67,-15.5 851.67,-22.5"/>
</g>
</g>
</svg>
