<?xml version="1.0" encoding="UTF-8" standalone="no"?>
<!DOCTYPE svg PUBLIC "-//W3C//DTD SVG 1.1//EN"
 "http://www.w3.org/Graphics/SVG/1.1/DTD/svg11.dtd">
<!-- Generated by graphviz version 2.43.0 (0)
 -->
<!-- Title: system_overview Pages: 1 -->
<svg width="1245pt" height="206pt"
 viewBox="0.00 0.00 1245.00 206.00" xmlns="http://www.w3.org/2000/svg" xmlns:xlink="http://www.w3.org/1999/xlink">
<g id="graph0" class="graph" transform="scale(1 1) rotate(0) translate(4 202)">
<title>system_overview</title>
<polygon fill="white" stroke="transparent" points="-4,4 -4,-202 1241,-202 1241,4 -4,4"/>
<!-- cli -->
<g id="node1" class="node">
<title>cli</title>
<path fill="#f8f8f8" stroke="#4c566a" d="M69,-117C69,-117 12,-117 12,-117 6,-117 0,-111 0,-105 0,-105 0,-91 0,-91 0,-85 6,-79 12,-79 12,-79 69,-79 69,-79 75,-79 81,-85 81,-91 81,-91 81,-105 81,-105 81,-111 75,-117 69,-117"/>
<text text-anchor="middle" x="40.5" y="-101.8" font-family="Times,serif" font-size="14.00">CLI</text>
<text text-anchor="middle" x="40.5" y="-86.8" font-family="Times,serif" font-size="14.00">src/cli.py</text>
</g>
<!-- processor -->
<g id="node2" class="node">
<title>processor</title>
<path fill="#f8f8f8" stroke="#4c566a" d="M409,-117C409,-117 259,-117 259,-117 253,-117 247,-111 247,-105 247,-105 247,-91 247,-91 247,-85 253,-79 259,-79 259,-79 409,-79 409,-79 415,-79 421,-85 421,-91 421,-91 421,-105 421,-105 421,-111 415,-117 409,-117"/>
<text text-anchor="middle" x="334" y="-101.8" font-family="Times,serif" font-size="14.00">ClinicalDataProcessor</text>
<text text-anchor="middle" x="334" y="-86.8" font-family="Times,serif" font-size="14.00">src/data_processor.py</text>
</g>
<!-- cli&#45;&gt;processor -->
<g id="edge1" class="edge">
<title>cli&#45;&gt;processor</title>
<path fill="none" stroke="black" d="M81.12,-98C120.89,-98 183.71,-98 236.65,-98"/>
<polygon fill="black" stroke="black" points="236.76,-101.5 246.76,-98 236.76,-94.5 236.76,-101.5"/>
<text text-anchor="middle" x="164" y="-101.8" font-family="Times,serif" font-size="14.00">load + preprocess</text>
</g>
<!-- registry -->
<g id="node3" class="node">
<title>registry</title>
<path fill="#f8f8f8" stroke="#4c566a" d="M751,-117C751,-117 609,-117 609,-117 603,-117 597,-111 597,-105 597,-105 597,-91 597,-91 597,-85 603,-79 609,-79 609,-79 751,-79 751,-79 757,-79 763,-85 763,-91 763,-91 763,-105 763,-105 763,-111 757,-117 751,-117"/>
<text text-anchor="middle" x="680" y="-101.8" font-family="Times,serif" font-size="14.00">Experiment Registry</text>
<text text-anchor="middle" x="680" y="-86.8" font-family="Times,serif" font-size="14.00">configured instances</text>
</g>
<!-- processor&#45;&gt;registry -->
<g id="edge2" class="edge">
<title>processor&#45;&gt;registry</title>
<path fill="none" stroke="black" d="M421.36,-98C471.74,-98 535.28,-98 586.65,-98"/>
<polygon fill="black" stroke="black" points="586.75,-101.5 596.75,-98 586.75,-94.5 586.75,-101.5"/>
<text text-anchor="middle" x="509" y="-101.8" font-family="Times,serif" font-size="14.00">cleaned DataFrame</text>
</g>
<!-- perm -->
<g id="node4" class="node">
<title>perm</title>
<path fill="#f8f8f8" stroke="#4c566a" d="M1061,-198C1061,-198 814,-198 814,-198 808,-198 802,-192 802,-186 802,-186 802,-174 802,-174 802,-168 808,-162 814,-162 814,-162 1061,-162 1061,-162 1067,-162 1073,-168 1073,-174 1073,-174 1073,-186 1073,-186 1073,-192 1067,-198 1061,-198"/>
<text text-anchor="middle" x="937.5" y="-176.3" font-family="Times,serif" font-size="14.00">PermutationImportanceExperiment</text>
</g>
<!-- registry&#45;&gt;perm -->
<g id="edge3" class="edge">
<title>registry&#45;&gt;perm</title>
<path fill="none" stroke="black" d="M716.3,-117.02C739.52,-128.84 770.89,-143.54 800,-153 807.11,-155.31 814.49,-157.46 821.98,-159.44"/>
<polygon fill="black" stroke="black" points="821.32,-162.89 831.87,-161.97 823.05,-156.1 821.32,-162.89"/>
</g>
<!-- contrast -->
<g id="node5" class="node">
<title>contrast</title>
<path fill="#f8f8f8" stroke="#4c566a" d="M1058.5,-144C1058.5,-144 816.5,-144 816.5,-144 810.5,-144 804.5,-138 804.5,-132 804.5,-132 804.5,-120 804.5,-120 804.5,-114 810.5,-108 816.5,-108 816.5,-108 1058.5,-108 1058.5,-108 1064.5,-108 1070.5,-114 1070.5,-120 1070.5,-120 1070.5,-132 1070.5,-132 1070.5,-138 1064.5,-144 1058.5,-144"/>
<text text-anchor="middle" x="937.5" y="-122.3" font-family="Times,serif" font-size="14.00">ContrastPatternMiningExperiment</text>
</g>
<!-- registry&#45;&gt;contrast -->
<g id="edge4" class="edge">
<title>registry&#45;&gt;contrast</title>
<path fill="none" stroke="black" d="M763.25,-107.01C773.2,-108.1 783.57,-109.24 794.08,-110.39"/>
<polygon fill="black" stroke="black" points="793.86,-113.89 804.18,-111.5 794.62,-106.93 793.86,-113.89"/>
</g>
<!-- cluster -->
<g id="node6" class="node">
<title>cluster</title>
<path fill="#f8f8f8" stroke="#4c566a" d="M1063,-90C1063,-90 812,-90 812,-90 806,-90 800,-84 800,-78 800,-78 800,-66 800,-66 800,-60 806,-54 812,-54 812,-54 1063,-54 1063,-54 1069,-54 1075,-60 1075,-66 1075,-66 1075,-78 1075,-78 1075,-84 1069,-90 1063,-90"/>
<text text-anchor="middle" x="937.5" y="-68.3" font-family="Times,serif" font-size="14.00">UnsupervisedClusteringExperiment</text>
</g>
<!-- registry&#45;&gt;cluster -->
<g id="edge5" class="edge">
<title>registry&#45;&gt;cluster</title>
<path fill="none" stroke="black" d="M763.25,-89.63C771.73,-88.77 780.51,-87.87 789.43,-86.97"/>
<polygon fill="black" stroke="black" points="789.95,-90.43 799.54,-85.94 789.24,-83.47 789.95,-90.43"/>
</g>
<!-- bayes -->
<g id="node7" class="node">
<title>bayes</title>
<path fill="#f8f8f8" stroke="#4c566a" d="M1039,-36C1039,-36 836,-36 836,-36 830,-36 824,-30 824,-24 824,-24 824,-12 824,-12 824,-6 830,0 836,0 836,0 1039,0 1039,0 1045,0 1051,-6 1051,-12 1051,-12 1051,-24 1051,-24 1051,-30 1045,-36 1039,-36"/>
<text text-anchor="middle" x="937.5" y="-14.3" font-family="Times,serif" font-size="14.00">BayesianNetworkExperiment</text>
</g>
<!-- registry&#45;&gt;bayes -->
<g id="edge6" class="edge">
<title>registry&#45;&gt;bayes</title>
<path fill="none" stroke="black" d="M717.95,-78.97C741.03,-67.73 771.65,-53.99 800,-45 807.37,-42.66 815.02,-40.49 822.78,-38.47"/>
<polygon fill="black" stroke="black" points="823.8,-41.83 832.65,-36 822.1,-35.04 823.8,-41.83"/>
</g>
<!-- outputs -->
<g id="node8" class="node">
<title>outputs</title>
<path fill="#f8f8f8" stroke="#4c566a" d="M1225,-117C1225,-117 1124,-117 1124,-117 1118,-117 1112,-111 1112,-105 1112,-105 1112,-91 1112,-91 1112,-85 1118,-79 1124,-79 1124,-79 1225,-79 1225,-79 1231,-79 1237,-85 1237,-91 1237,-91 1237,-105 1237,-105 1237,-111 1231,-117 1225,-117"/>
<text text-anchor="middle" x="1174.5" y="-101.8" font-family="Times,serif" font-size="14.00">Artifacts</text>
<text text-anchor="middle" x="1174.5" y="-86.8" font-family="Times,serif" font-size="14.00">LaTeX + HTML</text>
</g>
<!-- perm&#45;&gt;outputs -->
<g id="edge7" class="edge">
<title>perm&#45;&gt;outputs</title>
<path fill="none" stroke="black" d="M1046.31,-161.99C1056.12,-159.36 1065.82,-156.38 1075,-153 1096.13,-145.23 1118.15,-133.35 1135.99,-122.61"/>
<polygon fill="black" stroke="black" points="1138.23,-125.35 1144.92,-117.13 1134.57,-119.38 1138.23,-125.35"/>
</g>
<!-- contrast&#45;&gt;outputs -->
<g id="edge8" class="edge">
<title>contrast&#45;&gt;outputs</title>
<path fill="none" stroke="black" d="M1070.77,-110.24C1081.38,-108.98 1091.83,-107.73 1101.76,-106.55"/>
<polygon fill="black" stroke="black" points="1102.39,-110 1111.91,-105.34 1101.56,-103.05 1102.39,-110"/>
</g>
<!-- cluster&#45;&gt;outputs -->
<g id="edge9" class="edge">
<title>cluster&#45;&gt;outputs</title>
<path fill="none" stroke="black" d="M1075.2,-87.12C1084.25,-88.13 1093.13,-89.11 1101.65,-90.05"/>
<polygon fill="black" stroke="black" points="1101.5,-93.56 1111.82,-91.18 1102.27,-86.6 1101.5,-93.56"/>
</g>
<!-- bayes&#45;&gt;outputs -->
<g id="edge10" class="edge">
<title>bayes&#45;&gt;outputs</title>
<path fill="none" stroke="black" d="M1045.89,-36.07C1055.84,-38.69 1065.68,-41.66 1075,-45 1095.55,-52.37 1117.04,-63.49 1134.69,-73.64"/>
<polygon fill="black" stroke="black" points="1133.14,-76.79 1143.54,-78.83 1136.69,-70.75 1133.14,-76.79"/>
</g>
</g>
</svg>
